<svg width="255" height="144" viewBox="0 0 255 144" fill="none" xmlns="http://www.w3.org/2000/svg">
<path d="M0 0.954102C20.1732 -2.1024 73.3571 2.69639 124.707 46.3438C188.894 100.903 182.934 94.0268 204.941 107.781C226.948 121.536 251.248 138.958 254.916 144.001H220.074L220.071 143.979L219.961 142.985C219.463 143.041 218.614 142.958 217.338 142.596C216.081 142.239 214.48 141.632 212.506 140.709C208.559 138.862 203.185 135.78 196.198 131.004C182.226 121.453 161.865 105.175 133.646 78.6045C76.9162 25.1906 21.4547 25.836 0.592773 32.9971L0.916992 33.9434L1.24121 34.8887C21.3376 27.99 76.0347 27.1087 132.274 80.0615C160.539 106.674 180.984 123.025 195.07 132.654C202.112 137.468 207.582 140.613 211.658 142.521C212.973 143.136 214.15 143.625 215.193 144.001H79.5137C77.2493 124.121 60.3739 108.677 39.8877 108.677C19.4016 108.677 2.52611 124.121 0.261719 144.001H0V55.9502L0.581055 56.7637C6.54062 52.5071 26.4264 48.021 56.3086 67.335C75.0554 79.4518 82.1875 86.3805 86.8574 92.0068C91.5352 97.6427 93.9463 102.266 102.994 109.458C117.331 120.854 140.802 137.163 150.738 143.89L151.859 142.233C141.928 135.51 118.512 119.237 104.239 107.893C95.407 100.872 93.232 96.5554 88.3965 90.7295C83.5529 84.8939 76.2426 77.8376 57.3945 65.6553C27.9325 46.6129 7.41609 50.0216 0 54.7471V0.954102ZM39.8877 110.677C59.268 110.677 75.2473 125.228 77.501 144.001H2.27441C4.52814 125.228 20.5074 110.677 39.8877 110.677Z" fill="#DDEEFC"/>
</svg>
