<svg width="595" height="842" viewBox="0 0 595 842" fill="none" xmlns="http://www.w3.org/2000/svg">
<path d="M235.025 0.635742C237.759 3.95499 242.242 9.02751 247.725 13.6279C253.195 18.2165 259.742 22.4075 266.606 23.8525C273.475 25.2985 283.465 23.7884 292.94 21.6494C302.413 19.5111 311.746 16.6447 317.067 15.3145C319.821 14.6259 323.153 13.548 326.898 12.334C330.656 11.1157 334.855 9.75181 339.388 8.47363C348.458 5.91672 358.827 3.71387 369.552 3.71387C391.173 3.71391 401.947 5.64024 415.832 9.11133C419.199 9.95326 425.131 12.6033 432.75 16.3135C440.339 20.0092 449.472 24.6895 459.225 29.5469C478.68 39.2362 500.57 49.6149 516.97 53.9102C533.16 58.1502 542.619 61.433 553.492 62.5039C563.758 63.5149 575.278 62.5635 595 58.7383V135.159C590.145 136.679 495.035 61.0532 447.026 46.3467C406.232 31.2556 369.839 36.42 363.657 37.084C325.568 38.0332 282.456 56.3226 228.659 51.1943C187.239 47.2458 148.671 15.8412 134.86 0H235.796L235.025 0.635742ZM527.981 0C527.399 2.57527 527.09 5.25448 527.09 8.00586C527.09 27.9658 543.27 44.1464 563.23 44.1465C576.946 44.1465 588.877 36.5061 595 25.249V56.6992C575.107 60.5741 563.731 61.5029 553.687 60.5137C543.024 59.4634 533.854 56.2638 517.477 51.9746C501.311 47.7407 479.606 37.4631 460.117 27.7568C450.398 22.9165 441.221 18.2144 433.625 14.5156C426.059 10.8315 419.928 8.07375 416.317 7.1709C402.288 3.66359 391.35 1.71391 369.552 1.71387C358.566 1.71387 347.997 3.96887 338.845 6.54883C334.269 7.83905 330.035 9.21377 326.281 10.4307C322.514 11.6518 319.255 12.7057 316.582 13.374C311.047 14.7576 302.005 17.5526 292.5 19.6982C282.998 21.8432 273.408 23.2406 267.018 21.8955C260.624 20.5493 254.377 16.5982 249.01 12.0957C243.996 7.8882 239.823 3.25769 237.1 0H527.981ZM595 20.5312C590.005 33.19 577.664 42.1465 563.23 42.1465C544.375 42.1464 529.09 26.8612 529.09 8.00586C529.09 5.24851 529.419 2.56802 530.036 0H595V20.5312Z" fill="#DDEEFC"/>
<path d="M0 698.954C20.1732 695.897 73.3571 700.696 124.707 744.344C188.894 798.903 182.934 792.027 204.941 805.781C226.948 819.536 251.248 836.958 254.916 842.001H220.074L220.071 841.978L219.961 840.985C219.463 841.041 218.614 840.958 217.338 840.596C216.081 840.239 214.48 839.632 212.506 838.709C208.559 836.862 203.185 833.78 196.198 829.004C182.226 819.453 161.865 803.175 133.646 776.604C76.9162 723.191 21.4547 723.836 0.592773 730.997L0.916992 731.943L1.24121 732.889C21.3376 725.99 76.0347 725.109 132.274 778.061C160.539 804.674 180.984 821.025 195.07 830.654C202.112 835.468 207.582 838.613 211.658 840.52C212.973 841.136 214.15 841.625 215.193 842.001H79.5137C77.2493 822.121 60.3739 806.677 39.8877 806.677C19.4016 806.677 2.52611 822.121 0.261719 842.001H0V753.95L0.581055 754.764C6.54062 750.507 26.4264 746.021 56.3086 765.335C75.0554 777.452 82.1875 784.38 86.8574 790.007C91.5352 795.643 93.9463 800.266 102.994 807.458C117.331 818.854 140.802 835.163 150.738 841.89L151.859 840.233C141.928 833.51 118.512 817.237 104.239 805.892C95.407 798.872 93.232 794.555 88.3965 788.729C83.5529 782.894 76.2426 775.837 57.3945 763.655C27.9325 744.613 7.41609 748.022 0 752.747V698.954ZM39.8877 808.677C59.268 808.677 75.2473 823.228 77.501 842.001H2.27441C4.52814 823.228 20.5074 808.677 39.8877 808.677Z" fill="#DDEEFC"/>
</svg>
