<svg width="461" height="136" viewBox="0 0 461 136" fill="none" xmlns="http://www.w3.org/2000/svg">
<path d="M101.025 0.635742C103.759 3.95499 108.242 9.02751 113.725 13.6279C119.195 18.2165 125.742 22.4075 132.606 23.8525C139.475 25.2985 149.465 23.7884 158.94 21.6494C168.413 19.5111 177.746 16.6447 183.067 15.3145C185.821 14.6259 189.153 13.548 192.898 12.334C196.656 11.1157 200.855 9.75181 205.388 8.47363C214.458 5.91672 224.827 3.71387 235.552 3.71387C257.173 3.71391 267.947 5.64024 281.832 9.11133C285.199 9.95326 291.131 12.6033 298.75 16.3135C306.339 20.0092 315.472 24.6895 325.225 29.5469C344.68 39.2362 366.57 49.6149 382.97 53.9102C399.16 58.1502 408.619 61.433 419.492 62.5039C429.758 63.5149 441.278 62.5635 461 58.7383V135.159C456.145 136.679 361.035 61.0532 313.026 46.3467C272.232 31.2556 235.839 36.42 229.657 37.084C191.568 38.0332 148.456 56.3226 94.6589 51.1943C53.2388 47.2458 14.671 15.8412 0.860107 0H101.796L101.025 0.635742ZM393.981 0C393.399 2.57527 393.09 5.25448 393.09 8.00586C393.09 27.9658 409.27 44.1464 429.23 44.1465C442.946 44.1465 454.877 36.5061 461 25.249V56.6992C441.107 60.5741 429.731 61.5029 419.687 60.5137C409.024 59.4634 399.854 56.2638 383.477 51.9746C367.311 47.7407 345.606 37.4631 326.117 27.7568C316.398 22.9165 307.221 18.2144 299.625 14.5156C292.059 10.8315 285.928 8.07375 282.317 7.1709C268.288 3.66359 257.35 1.71391 235.552 1.71387C224.566 1.71387 213.997 3.96887 204.845 6.54883C200.269 7.83905 196.035 9.21377 192.281 10.4307C188.514 11.6518 185.255 12.7057 182.582 13.374C177.047 14.7576 168.005 17.5526 158.5 19.6982C148.998 21.8432 139.408 23.2406 133.018 21.8955C126.624 20.5493 120.377 16.5982 115.01 12.0957C109.996 7.8882 105.823 3.25769 103.1 0H393.981ZM461 20.5312C456.005 33.19 443.664 42.1465 429.23 42.1465C410.375 42.1464 395.09 26.8612 395.09 8.00586C395.09 5.24851 395.419 2.56802 396.036 0H461V20.5312Z" fill="#DDEEFC"/>
</svg>
